<svg xmlns="http://www.w3.org/2000/svg"
    viewBox="0 0 5370 5370"
    fill="current">
    <g transform="translate(0,5370) scale(0.1,-0.1)">
        <path d="M40060 53693 c-127 -7 -385 -36 -525 -59 -868 -142 -1565 -464 -2315
        -1069 -293 -237 -532 -453 -980 -887 -151 -146 -8274 -8267 -18051 -18045
        -15365 -15367 -17784 -17791 -17842 -17873 -165 -236 -262 -468 -324 -770 -16
        -80 -17 -474 -20 -6655 -3 -4535 0 -6601 7 -6669 47 -450 243 -848 568 -1157
        262 -249 576 -407 962 -486 80 -16 477 -17 6650 -21 4741 -2 6596 0 6675 8
        308 31 590 133 855 310 l125 84 17555 17549 c9655 9652 17758 17755 18005
        18006 846 860 1188 1251 1505 1726 545 816 812 1757 787 2775 -22 902 -256
        1705 -704 2419 -270 430 -621 854 -1225 1481 -342 355 -7438 7444 -7628 7620
        -582 541 -971 845 -1405 1099 -603 352 -1296 557 -2065 611 -132 9 -476 11
        -610 3z m584 -3727 c60 -14 138 -39 172 -55 152 -71 372 -244 744 -584 201
        -184 7254 -7230 7589 -7582 448 -469 661 -728 755 -913 63 -123 103 -359 93
        -547 -6 -127 -38 -294 -72 -378 -62 -155 -239 -385 -588 -767 -83 -91 -2140
        -2155 -4571 -4588 l-4421 -4422 -5107 5107 -5108 5108 4133 4133 c4089 4091
        4681 4679 4992 4960 281 254 502 421 627 476 201 87 516 108 762 52z m-14821
        -34358 l-11908 -11908 -5107 0 -5108 0 0 5107 0 5108 11907 11907 11908 11908
        5107 -5107 5108 -5108 -11907 -11907z"/>
    </g>
</svg>